<svg width="232" height="163" viewBox="0 0 232 163" fill="none" xmlns="http://www.w3.org/2000/svg">
<g filter="url(#filter0_d_108_21)">
<path d="M50.4844 19.8281L44.2344 6.46875L24.3125 10.4141L25.0547 24.7109H30.9531L37.4375 15.2969V39.0469L30.6406 28.5781L25.2891 29.2031L26.3438 48.7344L37.8281 53.6172L8.02344 56.7812L16.5 49.2031L18.5703 11.7422L7.90625 2.32812L50.4844 0.804688V19.8281ZM101.383 40.4922C100.68 44.0599 99.7812 47.0026 98.6875 49.3203C97.5938 51.612 96.487 53.4219 95.3672 54.75C94.2474 56.0781 93.1927 57.0026 92.2031 57.5234C91.2396 58.0443 90.5104 58.3047 90.0156 58.3047C89.2344 58.3047 88.2318 57.9661 87.0078 57.2891C85.7839 56.612 84.4297 55.7396 82.9453 54.6719C81.487 53.6042 79.9635 52.4062 78.375 51.0781C76.8125 49.724 75.3021 48.3828 73.8438 47.0547C72.3854 45.7266 71.0443 44.4766 69.8203 43.3047C68.5964 42.1328 67.6068 41.1693 66.8516 40.4141L67.1641 50.0625L75.4062 54.6328L50.6016 56.3906L58.9219 48.7344L60.3672 9.4375L50.2109 4.55469C55.2891 4.26823 59.599 4.0599 63.1406 3.92969C66.6823 3.77344 69.612 3.66927 71.9297 3.61719C74.2474 3.5651 76.0312 3.53906 77.2812 3.53906C78.5312 3.53906 79.4167 3.53906 79.9375 3.53906C81.0573 3.53906 82.2682 3.64323 83.5703 3.85156C84.8984 4.03385 86.2135 4.35938 87.5156 4.82812C88.8177 5.27083 90.0807 5.84375 91.3047 6.54688C92.5286 7.25 93.6094 8.10938 94.5469 9.125C95.4844 10.1406 96.2266 11.3255 96.7734 12.6797C97.3464 14.0078 97.6328 15.5182 97.6328 17.2109C97.6328 17.6016 97.5807 18.1484 97.4766 18.8516C97.3984 19.5286 97.2161 20.3229 96.9297 21.2344C96.6432 22.1198 96.2135 23.0703 95.6406 24.0859C95.0677 25.0755 94.2865 26.0781 93.2969 27.0938C92.3333 28.0833 91.1354 29.0469 89.7031 29.9844C88.2708 30.9219 86.5391 31.7552 84.5078 32.4844C82.5026 33.2135 80.1589 33.8125 77.4766 34.2812C74.8203 34.724 71.7734 34.9714 68.3359 35.0234C70.0286 36.2995 71.8646 37.6667 73.8438 39.125C75.8229 40.5573 77.8281 41.8854 79.8594 43.1094C81.8906 44.3073 83.8828 45.3099 85.8359 46.1172C87.7891 46.8984 89.612 47.2891 91.3047 47.2891C92.112 47.2891 92.9714 47.1979 93.8828 47.0156C94.8203 46.8333 95.7318 46.4948 96.6172 46C97.5286 45.4792 98.388 44.7891 99.1953 43.9297C100.029 43.0443 100.758 41.8984 101.383 40.4922ZM86.3438 19.0469C86.3438 18.2396 86.2786 17.4323 86.1484 16.625C86.0182 15.8177 85.7448 15.0495 85.3281 14.3203C84.9115 13.5911 84.3125 12.901 83.5312 12.25C82.75 11.599 81.6953 11.0391 80.3672 10.5703C79.0651 10.1016 77.4505 9.73698 75.5234 9.47656C73.5964 9.1901 71.2917 9.04688 68.6094 9.04688C68.1927 9.04688 67.7891 9.04688 67.3984 9.04688C67.0078 9.04688 66.6042 9.07292 66.1875 9.125L66.5781 29.9844C68.2188 29.9583 69.8464 29.8281 71.4609 29.5938C73.0755 29.3333 74.612 28.9818 76.0703 28.5391C77.5286 28.0964 78.8828 27.5625 80.1328 26.9375C81.4089 26.3125 82.5026 25.6094 83.4141 24.8281C84.3255 24.0208 85.0417 23.1354 85.5625 22.1719C86.0833 21.2083 86.3438 20.1667 86.3438 19.0469ZM151.07 2.79688L143.141 9.20312C143.193 10.2969 143.232 11.4036 143.258 12.5234C143.31 13.6432 143.336 14.6458 143.336 15.5312C143.336 19.0469 143.31 22.4974 143.258 25.8828C143.232 29.2422 143.062 32.4453 142.75 35.4922C142.438 38.513 141.943 41.3125 141.266 43.8906C140.615 46.4427 139.664 48.6562 138.414 50.5312C137.164 52.3802 135.576 53.8385 133.648 54.9062C131.721 55.9479 129.339 56.4688 126.5 56.4688C123.635 56.4688 121.188 55.7786 119.156 54.3984C117.125 53.0182 115.406 51.1562 114 48.8125C112.62 46.4688 111.5 43.7474 110.641 40.6484C109.807 37.5234 109.143 34.2161 108.648 30.7266C108.154 27.237 107.789 23.6693 107.555 20.0234C107.346 16.3776 107.164 12.849 107.008 9.4375L99.1562 4.78906L126.5 1.9375L117.945 8.30469C117.893 9.11198 117.867 9.91927 117.867 10.7266C117.867 11.5078 117.867 12.3021 117.867 13.1094C117.867 14.9323 117.867 16.8854 117.867 18.9688C117.867 21.0521 117.906 23.1875 117.984 25.375C118.062 27.5365 118.18 29.7109 118.336 31.8984C118.492 34.0599 118.714 36.1432 119 38.1484C119.312 40.1536 119.703 42.0156 120.172 43.7344C120.641 45.4531 121.227 46.9505 121.93 48.2266C122.633 49.5026 123.453 50.5052 124.391 51.2344C125.354 51.9635 126.461 52.3281 127.711 52.3281C129.378 52.3281 130.901 51.8854 132.281 51C133.661 50.1146 134.846 48.7344 135.836 46.8594C136.826 44.9583 137.594 42.5234 138.141 39.5547C138.714 36.5859 139 33.0052 139 28.8125C139 23.7083 138.818 19.5677 138.453 16.3906C138.115 13.2135 137.789 10.8438 137.477 9.28125L129.547 5.53125L151.07 2.79688ZM167.555 13.5391L168.688 48.8906L176.773 54.5547L149.078 56.9766L158.609 49.0469L160.992 11.1953L152.828 4.78906L176.617 6.23438L167.555 13.5391ZM224.039 2.875L220.992 25.7656L216.5 9.04688L204.508 10.4141L206.109 49.4375L215.797 54.3984L184.586 57.3672L195.953 49.125L197.945 10.8047L185.562 10.3359L180.758 24.5547L179.234 3.53906L224.039 2.875ZM65.9922 93.6641L58.4141 97.8438L57.3594 117.219L77.5156 117.844L78.0234 101.594L70.7969 97.2969L93.9219 95.8516L85.1328 103.039L86.5781 142.336L94.6641 147.688L66.8906 147.844L76.7344 141.281L77.3594 122.883L57.0469 122.492L56.1875 138.547L61.9297 144.328H42.9062L49.625 138.898L47.2812 98.3906L38.8047 93.2734L65.9922 93.6641ZM144.469 94.7969L136.539 101.203C136.591 102.297 136.63 103.404 136.656 104.523C136.708 105.643 136.734 106.646 136.734 107.531C136.734 111.047 136.708 114.497 136.656 117.883C136.63 121.242 136.461 124.445 136.148 127.492C135.836 130.513 135.341 133.312 134.664 135.891C134.013 138.443 133.062 140.656 131.812 142.531C130.562 144.38 128.974 145.839 127.047 146.906C125.12 147.948 122.737 148.469 119.898 148.469C117.034 148.469 114.586 147.779 112.555 146.398C110.523 145.018 108.805 143.156 107.398 140.812C106.018 138.469 104.898 135.747 104.039 132.648C103.206 129.523 102.542 126.216 102.047 122.727C101.552 119.237 101.188 115.669 100.953 112.023C100.745 108.378 100.562 104.849 100.406 101.438L92.5547 96.7891L119.898 93.9375L111.344 100.305C111.292 101.112 111.266 101.919 111.266 102.727C111.266 103.508 111.266 104.302 111.266 105.109C111.266 106.932 111.266 108.885 111.266 110.969C111.266 113.052 111.305 115.188 111.383 117.375C111.461 119.536 111.578 121.711 111.734 123.898C111.891 126.06 112.112 128.143 112.398 130.148C112.711 132.154 113.102 134.016 113.57 135.734C114.039 137.453 114.625 138.951 115.328 140.227C116.031 141.503 116.852 142.505 117.789 143.234C118.753 143.964 119.859 144.328 121.109 144.328C122.776 144.328 124.299 143.885 125.68 143C127.06 142.115 128.245 140.734 129.234 138.859C130.224 136.958 130.992 134.523 131.539 131.555C132.112 128.586 132.398 125.005 132.398 120.812C132.398 115.708 132.216 111.568 131.852 108.391C131.513 105.214 131.188 102.844 130.875 101.281L122.945 97.5312L144.469 94.7969ZM190.719 107.844C190.719 110.24 190.367 112.258 189.664 113.898C188.961 115.539 188.023 116.893 186.852 117.961C185.68 119.029 184.339 119.862 182.828 120.461C181.318 121.06 179.768 121.49 178.18 121.75C180.185 122.479 181.812 123.404 183.062 124.523C184.339 125.643 185.328 126.815 186.031 128.039C186.76 129.237 187.255 130.422 187.516 131.594C187.776 132.74 187.906 133.703 187.906 134.484C187.906 136.438 187.62 138.143 187.047 139.602C186.474 141.06 185.693 142.31 184.703 143.352C183.74 144.393 182.607 145.253 181.305 145.93C180.003 146.607 178.609 147.154 177.125 147.57C175.667 147.961 174.156 148.234 172.594 148.391C171.057 148.547 169.56 148.625 168.102 148.625C167.607 148.625 167.099 148.612 166.578 148.586C166.083 148.586 165.458 148.56 164.703 148.508C163.948 148.482 162.997 148.43 161.852 148.352C160.732 148.273 159.286 148.169 157.516 148.039C155.745 147.909 153.596 147.753 151.07 147.57C148.544 147.362 145.523 147.128 142.008 146.867L151.461 141.047L154.234 99.7578L144 93.1172C148.818 93.1693 153.036 93.2214 156.656 93.2734C160.302 93.3255 163.375 93.3776 165.875 93.4297C168.792 93.4818 171.292 93.5339 173.375 93.5859C175.406 93.5859 177.451 93.8984 179.508 94.5234C181.591 95.1224 183.453 96.0208 185.094 97.2188C186.76 98.4167 188.115 99.9141 189.156 101.711C190.198 103.482 190.719 105.526 190.719 107.844ZM180.406 108.078C180.406 107.844 180.367 107.44 180.289 106.867C180.237 106.268 180.055 105.604 179.742 104.875C179.456 104.12 179 103.339 178.375 102.531C177.75 101.698 176.878 100.943 175.758 100.266C174.638 99.5885 173.219 99.0286 171.5 98.5859C169.807 98.1172 167.737 97.8698 165.289 97.8438C163.987 97.8438 162.711 97.9219 161.461 98.0781V119.68C162.138 119.732 162.815 119.758 163.492 119.758C164.169 119.758 164.768 119.758 165.289 119.758C167.789 119.758 169.898 119.51 171.617 119.016C173.336 118.521 174.755 117.883 175.875 117.102C176.995 116.32 177.854 115.474 178.453 114.562C179.078 113.625 179.534 112.727 179.82 111.867C180.107 110.982 180.276 110.201 180.328 109.523C180.38 108.846 180.406 108.365 180.406 108.078ZM165.523 123.938C164.951 123.938 164.299 123.938 163.57 123.938C162.841 123.938 162.138 123.964 161.461 124.016V142.805C162.633 143.013 163.714 143.156 164.703 143.234C165.693 143.312 166.682 143.352 167.672 143.352C169 143.352 170.315 143.208 171.617 142.922C172.945 142.609 174.13 142.089 175.172 141.359C176.24 140.604 177.099 139.602 177.75 138.352C178.401 137.102 178.727 135.539 178.727 133.664C178.727 132.701 178.505 131.646 178.062 130.5C177.62 129.354 176.891 128.299 175.875 127.336C174.859 126.372 173.505 125.565 171.812 124.914C170.12 124.263 168.023 123.938 165.523 123.938Z" fill="white"/>
</g>
<defs>
<filter id="filter0_d_108_21" x="0.90625" y="0.804688" width="230.133" height="161.82" filterUnits="userSpaceOnUse" color-interpolation-filters="sRGB">
<feFlood flood-opacity="0" result="BackgroundImageFix"/>
<feColorMatrix in="SourceAlpha" type="matrix" values="0 0 0 0 0 0 0 0 0 0 0 0 0 0 0 0 0 0 127 0" result="hardAlpha"/>
<feOffset dy="7"/>
<feGaussianBlur stdDeviation="3.5"/>
<feComposite in2="hardAlpha" operator="out"/>
<feColorMatrix type="matrix" values="0 0 0 0 0 0 0 0 0 0 0 0 0 0 0 0 0 0 0.25 0"/>
<feBlend mode="normal" in2="BackgroundImageFix" result="effect1_dropShadow_108_21"/>
<feBlend mode="normal" in="SourceGraphic" in2="effect1_dropShadow_108_21" result="shape"/>
</filter>
</defs>
</svg>
