<svg width="257" height="51" viewBox="0 0 257 51" fill="none" xmlns="http://www.w3.org/2000/svg">
<g filter="url(#filter0_d_135_14)">
<path d="M34.2852 12.3926L30.3789 4.04297L17.9277 6.50879L18.3916 15.4443H22.0781L26.1309 9.56055V24.4043L21.8828 17.8613L18.5381 18.252L19.1973 30.459L26.375 33.5107L7.74707 35.4883L13.0449 30.752L14.3389 7.33887L7.67383 1.45508L34.2852 0.50293V12.3926ZM66.0967 25.3076C65.6572 27.5374 65.0957 29.3766 64.4121 30.8252C63.7285 32.2575 63.0368 33.3887 62.3369 34.2188C61.637 35.0488 60.9779 35.6266 60.3594 35.9521C59.7572 36.2777 59.3014 36.4404 58.9922 36.4404C58.5039 36.4404 57.8773 36.2288 57.1123 35.8057C56.3473 35.3825 55.501 34.8372 54.5732 34.1699C53.6618 33.5026 52.7096 32.7539 51.7168 31.9238C50.7402 31.0775 49.7962 30.2393 48.8848 29.4092C47.9733 28.5791 47.1351 27.7979 46.3701 27.0654C45.6051 26.333 44.9867 25.7308 44.5146 25.2588L44.71 31.2891L49.8613 34.1455L34.3584 35.2441L39.5586 30.459L40.4619 5.89844L34.1143 2.84668C37.2881 2.66764 39.9818 2.53743 42.1953 2.45605C44.4089 2.3584 46.2399 2.29329 47.6885 2.26074C49.137 2.22819 50.252 2.21191 51.0332 2.21191C51.8145 2.21191 52.3678 2.21191 52.6934 2.21191C53.3932 2.21191 54.1501 2.27702 54.9639 2.40723C55.7939 2.52116 56.6159 2.72461 57.4297 3.01758C58.2435 3.29427 59.0329 3.65234 59.7979 4.0918C60.5628 4.53125 61.2383 5.06836 61.8242 5.70312C62.4102 6.33789 62.874 7.07845 63.2158 7.9248C63.5739 8.75488 63.7529 9.69889 63.7529 10.7568C63.7529 11.001 63.7204 11.3428 63.6553 11.7822C63.6064 12.2054 63.4925 12.7018 63.3135 13.2715C63.1344 13.8249 62.8659 14.4189 62.5078 15.0537C62.1497 15.6722 61.6615 16.2988 61.043 16.9336C60.4408 17.5521 59.6921 18.1543 58.7969 18.7402C57.9017 19.3262 56.8193 19.847 55.5498 20.3027C54.2965 20.7585 52.8317 21.1328 51.1553 21.4258C49.4951 21.7025 47.5908 21.8571 45.4424 21.8896C46.5003 22.6872 47.6478 23.5417 48.8848 24.4531C50.1217 25.3483 51.375 26.1784 52.6445 26.9434C53.9141 27.6921 55.1592 28.3187 56.3799 28.8232C57.6006 29.3115 58.7399 29.5557 59.7979 29.5557C60.3024 29.5557 60.8395 29.4987 61.4092 29.3848C61.9951 29.2708 62.5648 29.0592 63.1182 28.75C63.6878 28.4245 64.2249 27.9932 64.7295 27.4561C65.2503 26.9027 65.7061 26.1865 66.0967 25.3076ZM56.6973 11.9043C56.6973 11.3997 56.6566 10.8952 56.5752 10.3906C56.4938 9.88607 56.3229 9.40592 56.0625 8.9502C55.8021 8.49447 55.4277 8.06315 54.9395 7.65625C54.4512 7.24935 53.792 6.89941 52.9619 6.60645C52.1481 6.31348 51.139 6.08561 49.9346 5.92285C48.7301 5.74382 47.2897 5.6543 45.6133 5.6543C45.3529 5.6543 45.1006 5.6543 44.8564 5.6543C44.6123 5.6543 44.36 5.67057 44.0996 5.70312L44.3438 18.7402C45.3691 18.724 46.3864 18.6426 47.3955 18.4961C48.4046 18.3333 49.3649 18.1136 50.2764 17.8369C51.1878 17.5602 52.0342 17.2266 52.8154 16.8359C53.613 16.4453 54.2965 16.0059 54.8662 15.5176C55.4359 15.013 55.8835 14.4596 56.209 13.8574C56.5345 13.2552 56.6973 12.6042 56.6973 11.9043ZM97.1514 1.74805L92.1953 5.75195C92.2279 6.43555 92.2523 7.12728 92.2686 7.82715C92.3011 8.52702 92.3174 9.15365 92.3174 9.70703C92.3174 11.9043 92.3011 14.0609 92.2686 16.1768C92.2523 18.2764 92.1465 20.2783 91.9512 22.1826C91.7559 24.0706 91.4466 25.8203 91.0234 27.4316C90.6165 29.0267 90.0225 30.4102 89.2412 31.582C88.46 32.7376 87.4671 33.6491 86.2627 34.3164C85.0583 34.9674 83.569 35.293 81.7949 35.293C80.0046 35.293 78.4746 34.8617 77.2051 33.999C75.9355 33.1364 74.8613 31.9727 73.9824 30.5078C73.1198 29.043 72.4199 27.3421 71.8828 25.4053C71.362 23.4521 70.9469 21.3851 70.6377 19.2041C70.3285 17.0231 70.1006 14.7933 69.9541 12.5146C69.8239 10.236 69.71 8.0306 69.6123 5.89844L64.7051 2.99316L81.7949 1.21094L76.4482 5.19043C76.4157 5.69499 76.3994 6.19954 76.3994 6.7041C76.3994 7.19238 76.3994 7.6888 76.3994 8.19336C76.3994 9.33268 76.3994 10.5534 76.3994 11.8555C76.3994 13.1576 76.4238 14.4922 76.4727 15.8594C76.5215 17.2103 76.5947 18.5693 76.6924 19.9365C76.79 21.2874 76.9284 22.5895 77.1074 23.8428C77.3027 25.096 77.5469 26.2598 77.8398 27.334C78.1328 28.4082 78.499 29.3441 78.9385 30.1416C79.3779 30.9391 79.8906 31.5658 80.4766 32.0215C81.0788 32.4772 81.7705 32.7051 82.5518 32.7051C83.5934 32.7051 84.5456 32.4284 85.4082 31.875C86.2708 31.3216 87.0114 30.459 87.6299 29.2871C88.2484 28.099 88.7285 26.5771 89.0703 24.7217C89.4284 22.8662 89.6074 20.6283 89.6074 18.0078C89.6074 14.8177 89.4935 12.2298 89.2656 10.2441C89.054 8.25846 88.8506 6.77734 88.6553 5.80078L83.6992 3.45703L97.1514 1.74805ZM107.454 8.46191L108.162 30.5566L113.216 34.0967L95.9062 35.6104L101.863 30.6543L103.353 6.99707L98.25 2.99316L113.118 3.89648L107.454 8.46191ZM142.757 1.79688L140.853 16.1035L138.045 5.6543L130.55 6.50879L131.551 30.8984L137.605 33.999L118.099 35.8545L125.203 30.7031L126.448 6.75293L118.709 6.45996L115.706 15.3467L114.754 2.21191L142.757 1.79688ZM171.59 1.04004L166.854 3.65234L166.194 15.7617L178.792 16.1523L179.109 5.99609L174.593 3.31055L189.046 2.40723L183.553 6.89941L184.456 31.46L189.51 34.8047L172.151 34.9023L178.304 30.8008L178.694 19.3018L165.999 19.0576L165.462 29.0918L169.051 32.7051H157.161L161.36 29.3115L159.896 3.99414L154.598 0.795898L171.59 1.04004ZM220.638 1.74805L215.682 5.75195C215.714 6.43555 215.739 7.12728 215.755 7.82715C215.787 8.52702 215.804 9.15365 215.804 9.70703C215.804 11.9043 215.787 14.0609 215.755 16.1768C215.739 18.2764 215.633 20.2783 215.438 22.1826C215.242 24.0706 214.933 25.8203 214.51 27.4316C214.103 29.0267 213.509 30.4102 212.728 31.582C211.946 32.7376 210.953 33.6491 209.749 34.3164C208.545 34.9674 207.055 35.293 205.281 35.293C203.491 35.293 201.961 34.8617 200.691 33.999C199.422 33.1364 198.348 31.9727 197.469 30.5078C196.606 29.043 195.906 27.3421 195.369 25.4053C194.848 23.4521 194.433 21.3851 194.124 19.2041C193.815 17.0231 193.587 14.7933 193.44 12.5146C193.31 10.236 193.196 8.0306 193.099 5.89844L188.191 2.99316L205.281 1.21094L199.935 5.19043C199.902 5.69499 199.886 6.19954 199.886 6.7041C199.886 7.19238 199.886 7.6888 199.886 8.19336C199.886 9.33268 199.886 10.5534 199.886 11.8555C199.886 13.1576 199.91 14.4922 199.959 15.8594C200.008 17.2103 200.081 18.5693 200.179 19.9365C200.276 21.2874 200.415 22.5895 200.594 23.8428C200.789 25.096 201.033 26.2598 201.326 27.334C201.619 28.4082 201.985 29.3441 202.425 30.1416C202.864 30.9391 203.377 31.5658 203.963 32.0215C204.565 32.4772 205.257 32.7051 206.038 32.7051C207.08 32.7051 208.032 32.4284 208.895 31.875C209.757 31.3216 210.498 30.459 211.116 29.2871C211.735 28.099 212.215 26.5771 212.557 24.7217C212.915 22.8662 213.094 20.6283 213.094 18.0078C213.094 14.8177 212.98 12.2298 212.752 10.2441C212.54 8.25846 212.337 6.77734 212.142 5.80078L207.186 3.45703L220.638 1.74805ZM249.544 9.90234C249.544 11.3997 249.324 12.6611 248.885 13.6865C248.445 14.7119 247.859 15.5583 247.127 16.2256C246.395 16.8929 245.556 17.4137 244.612 17.7881C243.668 18.1624 242.7 18.431 241.707 18.5938C242.96 19.0495 243.978 19.6273 244.759 20.3271C245.556 21.027 246.175 21.7594 246.614 22.5244C247.07 23.2731 247.379 24.0137 247.542 24.7461C247.705 25.4622 247.786 26.0645 247.786 26.5527C247.786 27.7734 247.607 28.8395 247.249 29.751C246.891 30.6624 246.403 31.4437 245.784 32.0947C245.182 32.7458 244.474 33.2829 243.66 33.7061C242.846 34.1292 241.976 34.471 241.048 34.7314C240.136 34.9756 239.192 35.1465 238.216 35.2441C237.256 35.3418 236.32 35.3906 235.408 35.3906C235.099 35.3906 234.782 35.3825 234.456 35.3662C234.147 35.3662 233.756 35.3499 233.284 35.3174C232.812 35.3011 232.218 35.2686 231.502 35.2197C230.802 35.1709 229.899 35.1058 228.792 35.0244C227.685 34.943 226.342 34.8454 224.764 34.7314C223.185 34.6012 221.297 34.4548 219.1 34.292L225.008 30.6543L226.741 4.84863L220.345 0.698242C223.356 0.730794 225.993 0.763346 228.255 0.795898C230.534 0.828451 232.454 0.861003 234.017 0.893555C235.84 0.926107 237.402 0.958659 238.704 0.991211C239.974 0.991211 241.251 1.18652 242.537 1.57715C243.839 1.9515 245.003 2.51302 246.028 3.26172C247.07 4.01042 247.916 4.94629 248.567 6.06934C249.218 7.17611 249.544 8.45378 249.544 9.90234ZM243.099 10.0488C243.099 9.90234 243.074 9.65007 243.025 9.29199C242.993 8.91764 242.879 8.5026 242.684 8.04688C242.505 7.57487 242.22 7.08659 241.829 6.58203C241.438 6.0612 240.893 5.58919 240.193 5.16602C239.493 4.74284 238.606 4.3929 237.532 4.11621C236.474 3.82324 235.18 3.66862 233.65 3.65234C232.837 3.65234 232.039 3.70117 231.258 3.79883V17.2998C231.681 17.3324 232.104 17.3486 232.527 17.3486C232.951 17.3486 233.325 17.3486 233.65 17.3486C235.213 17.3486 236.531 17.194 237.605 16.8848C238.68 16.5755 239.567 16.1768 240.267 15.6885C240.966 15.2002 241.504 14.6712 241.878 14.1016C242.269 13.5156 242.553 12.9541 242.732 12.417C242.911 11.8636 243.017 11.3753 243.05 10.9521C243.082 10.529 243.099 10.2279 243.099 10.0488ZM233.797 19.9609C233.439 19.9609 233.032 19.9609 232.576 19.9609C232.12 19.9609 231.681 19.9772 231.258 20.0098V31.7529C231.99 31.8831 232.666 31.9727 233.284 32.0215C233.903 32.0703 234.521 32.0947 235.14 32.0947C235.97 32.0947 236.792 32.0052 237.605 31.8262C238.436 31.6309 239.176 31.3053 239.827 30.8496C240.494 30.3776 241.032 29.751 241.438 28.9697C241.845 28.1885 242.049 27.2119 242.049 26.04C242.049 25.4378 241.91 24.7786 241.634 24.0625C241.357 23.3464 240.901 22.6872 240.267 22.085C239.632 21.4827 238.785 20.9782 237.728 20.5713C236.67 20.1644 235.359 19.9609 233.797 19.9609Z" fill="#E19B7D"/>
</g>
<defs>
<filter id="filter0_d_135_14" x="0.673828" y="0.50293" width="255.87" height="49.9375" filterUnits="userSpaceOnUse" color-interpolation-filters="sRGB">
<feFlood flood-opacity="0" result="BackgroundImageFix"/>
<feColorMatrix in="SourceAlpha" type="matrix" values="0 0 0 0 0 0 0 0 0 0 0 0 0 0 0 0 0 0 127 0" result="hardAlpha"/>
<feOffset dy="7"/>
<feGaussianBlur stdDeviation="3.5"/>
<feComposite in2="hardAlpha" operator="out"/>
<feColorMatrix type="matrix" values="0 0 0 0 0 0 0 0 0 0 0 0 0 0 0 0 0 0 0.25 0"/>
<feBlend mode="normal" in2="BackgroundImageFix" result="effect1_dropShadow_135_14"/>
<feBlend mode="normal" in="SourceGraphic" in2="effect1_dropShadow_135_14" result="shape"/>
</filter>
</defs>
</svg>
