<svg width="25" height="24" viewBox="0 0 25 24" fill="none" xmlns="http://www.w3.org/2000/svg">
<g clip-path="url(#clip0_238_192)">
<path d="M12.1102 4.5C7.13914 4.5 2.89389 7.61 1.17392 12C2.89389 16.39 7.13914 19.5 12.1102 19.5C17.0812 19.5 21.3264 16.39 23.0464 12C21.3264 7.61 17.0812 4.5 12.1102 4.5ZM12.1102 17C9.36615 17 7.13914 14.76 7.13914 12C7.13914 9.24 9.36615 7 12.1102 7C14.8542 7 17.0812 9.24 17.0812 12C17.0812 14.76 14.8542 17 12.1102 17ZM12.1102 9C10.4598 9 9.12754 10.34 9.12754 12C9.12754 13.66 10.4598 15 12.1102 15C13.7605 15 15.0928 13.66 15.0928 12C15.0928 10.34 13.7605 9 12.1102 9Z" fill="black" fill-opacity="0.53"/>
</g>
<defs>
<clipPath id="clip0_238_192">
<rect width="23.8609" height="24" fill="white" transform="translate(0.179718)"/>
</clipPath>
</defs>
</svg>
