<svg width="24" height="24" viewBox="0 0 24 24" fill="none" xmlns="http://www.w3.org/2000/svg">
<g clip-path="url(#clip0_108_55)">
<path d="M17 5H14.8889C14.8889 2.79 12.9995 1 10.6667 1C8.3339 1 6.44445 2.79 6.44445 5H4.33334C3.17223 5 2.22223 5.9 2.22223 7V19C2.22223 20.1 3.17223 21 4.33334 21H17C18.1611 21 19.1111 20.1 19.1111 19V7C19.1111 5.9 18.1611 5 17 5ZM8.55556 9C8.55556 9.55 8.08056 10 7.50001 10C6.91945 10 6.44445 9.55 6.44445 9V7H8.55556V9ZM10.6667 3C11.8278 3 12.7778 3.9 12.7778 5H8.55556C8.55556 3.9 9.50556 3 10.6667 3ZM14.8889 9C14.8889 9.55 14.4139 10 13.8333 10C13.2528 10 12.7778 9.55 12.7778 9V7H14.8889V9Z" fill="white"/>
</g>
<defs>
<clipPath id="clip0_108_55">
<rect width="24" height="24" fill="white"/>
</clipPath>
</defs>
</svg>
