<svg width="21" height="21" viewBox="0 0 21 21" fill="none" xmlns="http://www.w3.org/2000/svg">
<path d="M9.08042 0C14.0658 0 18.1119 4.032 18.1119 9C18.1119 13.968 14.0658 18 9.08042 18C4.09505 18 0.0489502 13.968 0.0489502 9C0.0489502 4.032 4.09505 0 9.08042 0ZM9.08042 16C12.9609 16 16.1049 12.867 16.1049 9C16.1049 5.132 12.9609 2 9.08042 2C5.19889 2 2.05594 5.132 2.05594 9C2.05594 12.867 5.19889 16 9.08042 16ZM17.5951 16.071L20.434 18.899L19.014 20.314L16.1761 17.485L17.5951 16.071Z" fill="#B1B1B1"/>
</svg>
